# xmcd CD database file
#
# Track frame offsets:
#	187
#	22580
#	44170
#	66132
#	88307
#	107565
#	128465
#	146845
#
# Disc length: 2271 seconds
#
# Revision: 0
# Processed by: cddbd v1.5PL3 Copyright (c) Steve Scherf et al.
# Submitted via: CDex 1.50
#
DISCID=6908dd08
DTITLE=菅野美穂 - HAPPY ICECREAM
DYEAR=1995
DGENRE=JPop
TTITLE0=恋をしよう!
TTITLE1=涙は隠さないで
TTITLE2=Summer Holiday
TTITLE3=太陽が好き!
TTITLE4=Tambourine!
TTITLE5=追伸
TTITLE6=波風を立てよう!
TTITLE7=忘れなくちゃね
EXTD=YEAR: 1995/08/02
EXTT0=
EXTT1=
EXTT2=
EXTT3=
EXTT4=
EXTT5=
EXTT6=
EXTT7=
PLAYORDER=
